<svg width="38" height="35" viewBox="0 0 38 35" fill="none" xmlns="http://www.w3.org/2000/svg">
<path d="M10.6476 25.3978C10.8837 24.6652 12.0436 22.4547 14.3296 20.8256C14.9243 20.4015 16.8517 19.1381 19.6016 19.1771C20.535 19.1904 23.1078 19.3755 25.3099 21.3709C26.6642 22.5981 27.2986 23.9849 27.5843 24.7497" stroke="#52565E" stroke-width="3" stroke-miterlimit="10" stroke-linecap="round"/>
<path fill-rule="evenodd" clip-rule="evenodd" d="M17 1.04178C14.546 1.61818 12.3237 2.97544 10.4014 4.73663C7.82353 7.09841 5.69171 10.2657 4.11985 13.5701C2.54694 16.8766 1.49661 20.4003 1.13733 23.5271C0.790529 26.5452 1.04877 29.5438 2.51017 31.5065C3.08061 32.3521 3.68692 32.8961 4.19586 33.2387C4.45211 33.4113 4.67933 33.5298 4.85899 33.6097C4.94875 33.6497 5.02653 33.6799 5.09004 33.7025C5.12181 33.7137 5.15001 33.723 5.17439 33.7307C5.18658 33.7345 5.19781 33.7379 5.20805 33.741L5.22267 33.7452L5.22941 33.7471L5.23264 33.748L5.23422 33.7484C5.235 33.7487 5.23577 33.7489 5.63483 32.3029L5.23577 33.7489L5.35618 33.7821L5.48043 33.795C6.77091 33.9285 7.79273 33.2159 8.50349 32.466C9.22935 31.7001 9.87244 30.6503 10.4534 29.5127C11.5747 27.3173 12.6546 24.4044 13.7055 21.5697L13.7055 21.5696L13.8322 21.228C14.9451 18.2274 16.0297 15.3397 17.154 13.2059C17.7173 12.1368 18.2443 11.3489 18.7259 10.8494C19.2178 10.3391 19.4873 10.3054 19.5604 10.3068C19.6198 10.3079 19.8716 10.3427 20.3262 10.8523C20.7721 11.3521 21.2527 12.1347 21.7607 13.1967C22.7639 15.2939 23.7035 18.1052 24.6861 21.0454L24.7198 21.146C25.6937 24.0599 26.7134 27.1011 27.8434 29.3963C28.4073 30.5416 29.0462 31.603 29.7916 32.3893C30.5365 33.1752 31.5522 33.8515 32.8275 33.8018L33.2099 33.7869L33.5385 33.5905L32.769 32.3029C33.5385 33.5905 33.5387 33.5904 33.539 33.5902L33.5396 33.5899L33.5407 33.5892L33.5434 33.5876L33.5501 33.5835L33.5684 33.5723C33.5784 33.5662 33.5903 33.5588 33.6041 33.5501C33.6104 33.5462 33.617 33.542 33.624 33.5375C33.669 33.5089 33.7296 33.4694 33.8024 33.4198C33.9473 33.3209 34.1443 33.179 34.3635 32.9997C34.7841 32.6557 35.3662 32.1104 35.786 31.4054C36.9338 29.478 37.1039 26.5363 36.7586 23.5273C36.4031 20.4296 35.4613 16.9234 34.0398 13.6213C32.6209 10.3254 30.6892 7.15196 28.3041 4.7792C26.503 2.98746 24.3856 1.59962 22 1.02628V4.1482C23.463 4.64739 24.8661 5.59075 26.1883 6.90604C28.224 8.93121 29.966 11.7453 31.2843 14.8075C32.5999 17.8636 33.4588 21.0863 33.7782 23.8694C34.1077 26.7412 33.8268 28.8322 33.2085 29.8704C33.0438 30.147 32.7617 30.4342 32.4644 30.6773L32.4248 30.7094C32.3085 30.6411 32.1574 30.5243 31.9689 30.3255C31.5282 29.8605 31.0469 29.1112 30.5349 28.0713C29.5132 25.9961 28.559 23.1688 27.5651 20.195L27.4909 19.9731L27.4909 19.973C26.5406 17.1292 25.5516 14.1695 24.467 11.9022C23.9114 10.7405 23.2868 9.66434 22.5648 8.85505C21.8515 8.05558 20.8725 7.33097 19.6168 7.30734C18.3462 7.28342 17.3243 7.98078 16.5661 8.76723C15.7976 9.56443 15.1155 10.639 14.4999 11.8074C13.2664 14.1484 12.1132 17.2356 11.0194 20.1848L10.9302 20.4254C9.84714 23.346 8.8208 26.1137 7.78174 28.1482C7.24578 29.1976 6.75735 29.9472 6.32601 30.4023C6.12646 30.6129 5.98392 30.7154 5.89362 30.765L5.8712 30.7501C5.66975 30.6145 5.33567 30.3368 4.98196 29.806L4.95684 29.7684L4.9295 29.7323C4.16921 28.7285 3.79097 26.7132 4.11772 23.8696C4.43417 21.1156 5.37729 17.9104 6.82895 14.8588C8.28167 11.8049 10.2055 8.98477 12.428 6.94863C13.8761 5.62182 15.4114 4.66152 17 4.15346V1.04178ZM5.77995 30.8103C5.77543 30.8109 5.7732 30.8109 5.77322 30.8107C5.77323 30.8105 5.77549 30.8102 5.77995 30.8103Z" fill="#52565E"/>
</svg>
